<svg width="100" height="42" version="1.1" id="logo" xmlns="http://www.w3.org/2000/svg"
  xmlns:xlink="http://www.w3.org/1999/xlink" x="0px" y="0px" viewBox="0 0 259.8 47.2"
  style="enable-background:new 0 0 259.8 47.2;" xml:space="preserve">
  <g id="XMLID_5652_">
    <g id="XMLID_15_">
      <path id="XMLID_5724_" d="M71.1,37.5c4.9,0,8.9-3,8.9-9.5V16.2c0-6.4-2.3-9.7-8.7-9.7h-10c-1.7,0-2.5,1-2.5,2.7s0.8,2.7,2.5,2.7
			h9.5c2.7,0,3.6,1.6,3.6,4.1v2.4H65c-1.8,0-2.7,0.8-2.7,2.7c0,2.1,0.9,2.8,2.7,2.8h9.4v4.2c0,2.5-1.3,4-3.6,4h-9.5
			c-1.7,0-2.5,1-2.5,2.7s0.8,2.7,2.5,2.7H71.1z"></path>
      <path id="XMLID_47_" d="M186.3,15.9h-2.9c-5.1,0-8.7,2.9-8.7,8.6V29c0,5.7,3.8,8.4,8.6,8.4h3.1c4.8,0,8.6-2.7,8.6-8.4v-4.6
			C195,18.8,191.4,15.9,186.3,15.9z M189.4,29.2c0,1.9-0.9,3.3-3.4,3.3h-2.3c-2.5,0-3.4-1.3-3.4-3.3v-4.8c0-2.2,1-3.5,3.5-3.5h2.2
			c2.5,0,3.5,1.3,3.5,3.5v4.8H189.4z"></path>
      <path id="XMLID_5721_" d="M161.3,21.2h9.4c1.8,0,2.6-1,2.6-2.6c0-1.7-0.9-2.7-2.6-2.7h-12.1c-1.9,0-2.8,0.9-2.8,2.7v16.3
			c0,1.9,0.9,2.6,2.8,2.6c1.8,0,2.7-0.7,2.7-2.6L161.3,21.2L161.3,21.2z"></path>
      <path id="XMLID_7708_" d="M142.9,15.8H134c-1.9,0-2.7,1.7-2.7,2.9v26.5c0,1.1,1.1,2,2.8,2c1.9,0,2.7-1,2.7-2v-7.7h6.3
			c5.1,0,8.7-2.9,8.7-8.6v-4.6C151.8,18.7,148,15.8,142.9,15.8z M146.2,28.8c0,2.2-1,3.5-3.5,3.5h-5.9V21.2h6c2.5,0,3.4,1.3,3.4,3.3
			V28.8z"></path>
      <path id="XMLID_50_" d="M118.8,15.8h-2.2c-5,0-8.8,3.2-8.8,8.7v4.6c0,5.3,3.6,8.3,8.6,8.3h6.8c1.1,0,2.3-0.9,2.3-2.6
			c0-1.8-1.2-2.6-2.3-2.6H117c-2.2,0-3.7-1-3.7-2.8v-0.3h11.2c2.3,0,3-1.8,3-2.8v-1.8C127.6,18.9,123.7,15.8,118.8,15.8z M122,24.8
			h-8.6v-0.3c0-2.1,1.4-3.4,3.4-3.4h1.7c2.3,0,3.5,1.3,3.5,3.4V24.8z"></path>
      <path id="XMLID_5716_" d="M101.1,37.5c1.9,0,2.8-0.7,2.8-2.6V18.4c0-1.7-0.9-2.5-2.8-2.5c-1.8,0-2.7,0.8-2.7,2.5v5.5H90v-5.5
			c0-1.7-0.9-2.5-2.8-2.5s-2.8,0.8-2.8,2.5v16.4c0,1.9,0.9,2.6,2.8,2.6s2.8-0.7,2.8-2.6v-5.9h8.4v5.9
			C98.4,36.7,99.3,37.5,101.1,37.5"></path>
    </g>
    <g id="XMLID_16_">
      <path id="XMLID_5725_" style="fill:#ED1C24;"
        d="M20.1,22c0,0.8-0.2,1.6-0.4,2c-0.4,0.8-0.7,1.2-1.2,1.4c-0.5,0.3-1.3,0.4-2.7,0.4
			H4.5c-1.4,0-2.2-0.1-2.7-0.4C1.4,25.1,1,24.7,0.7,24c-0.2-0.4-0.4-1.2-0.4-2s0.2-1.6,0.4-2c0.4-0.8,0.7-1.2,1.2-1.4
			c0.5-0.3,1.3-0.4,2.7-0.4h11.3c1.4,0,2.2,0.1,2.7,0.4s0.8,0.7,1.2,1.4C19.9,20.4,20.1,21.1,20.1,22 M9.3,37.3
			c4.1,4.2,9.9,6.7,16.2,6.5c11.2-0.3,20.5-9.3,21.1-20.5c0.8-12.7-9.3-23.2-21.8-23.2c-6.1,0-11.6,2.5-15.6,6.5
			c-1.7,1.7-1.7,4.6,0,6.3s4.6,1.7,6.3,0c2.4-2.5,5.6-3.8,9.1-3.9c2.2,0,5.2,0.8,7.2,1.8c1,0.5,3.5,2,4.7,3.3c0,0,0,0,0,0.1
			c0.9,1,0.2,2.5-1.1,2.5h-4.8c-2.7,0-3,0.3-3.8,1.8c-1.2,2.1-1.2,4.8,0,6.9c0.9,1.5,1.2,1.8,3.8,1.8h4.8c1.3,0,2,1.5,1.1,2.5l0,0
			c-1.2,1.3-3.6,2.8-4.7,3.3c-2,1-5,1.8-7.2,1.8c-3.4,0-6.7-1.4-9.1-3.9c-1.7-1.7-4.6-1.7-6.3,0C7.6,32.7,7.6,35.6,9.3,37.3"></path>
      <path id="XMLID_5656_" style="fill:#ED1C24;" d="M214.1,21.2c1.7,0,2.5-1,2.5-2.7s-0.9-2.7-2.5-2.7h-14.4c-1.7,0-2.5,1-2.5,2.7
			s0.8,2.7,2.5,2.7h4.5v13.7c0,1.8,0.9,2.6,2.7,2.6c1.9,0,2.8-0.8,2.8-2.6V21.2H214.1z"></path>
      <path id="XMLID_5655_" style="fill:#ED1C24;" d="M258.9,19c0.1-0.3,0.1-0.5,0.1-0.7c0-1.5-1.2-2.4-3-2.5c-1.8-0.1-2.2,1-2.7,2.1
			l-0.9,2.8c-0.9,2.4-2,2.9-3.9,2.9h-2.8v-5.1c0-1.7-0.6-2.7-2.7-2.7c-2.1,0-2.8,1.1-2.8,2.7v16.1c0,2,1,2.8,2.7,2.8
			c2,0,2.8-0.9,2.8-2.9v-6.1h2.9c2.1,0,3.4,0.5,4.3,3.1l1.2,3.6c0.4,1.1,0.8,2.3,2.6,2.3c1.8,0,3.1-0.8,3.1-2.3c0-0.2,0-0.5-0.1-0.7
			l-1.4-4.1c-0.7-2.1-1.5-3.6-3.7-4.3c1.8-0.7,2.5-2,3.3-4L258.9,19z"></path>
      <path id="XMLID_5654_" style="fill:#ED1C24;" d="M227.4,37.5c5.3,0,8.9-2.7,8.9-8.4v-4.6c0-5.7-3.6-8.6-8.7-8.6H221
			c-1.1,0-2.3,1-2.3,2.7c0,1.8,1.2,2.7,2.3,2.7h6.2c2.4,0,3.4,1.1,3.5,3.2h-6.8c-1.7,0-2.6,0.7-2.6,2.3c0,1.8,1,2.3,2.6,2.3h6.8
			c-0.1,1.8-1,3.4-3.4,3.4h-6.5c-1,0-2.3,0.8-2.3,2.6c0,1.7,1.2,2.6,2.3,2.6h6.6V37.5z"></path>
    </g>
  </g>
</svg>